# xmcd CD database file
#
# Track frame offsets:
#	183
#	11870
#	22400
#	38143
#	55303
#	69460
#	83815
#	98378
#	115653
#	130678
#	146868
#	164455
#	180133
#	196793
#	213748
#
# Disc length: 3069 seconds
#
# Revision: 0
# Processed by: cddbd v1.5.1PL2 Copyright (c) Steve Scherf et al.
# Submitted via: CDex 1.51
#
DISCID=cc0bfb0f
DTITLE=Dick Hyman - Scott Joplin - Piano Works (1899-1904)
DYEAR=1975
DGENRE=Jazz
TTITLE0=Maple Leaf Rag
TTITLE1=Original Rags
TTITLE2=Swipesy
TTITLE3=Peacherine Rag
TTITLE4=The Easy Winners
TTITLE5=Sunflower Slow Drag
TTITLE6=The Entertainer
TTITLE7=Elite Syncopations
TTITLE8=The Strenuous Life
TTITLE9=A Breeze from Alabama
TTITLE10=Palm Leaf Rag
TTITLE11=Something Doing
TTITLE12=Weeping Willow
TTITLE13=The Chrysanthemum
TTITLE14=The Cascades
EXTD=YEAR: 1975
EXTT0=
EXTT1=
EXTT2=
EXTT3=
EXTT4=
EXTT5=
EXTT6=
EXTT7=
EXTT8=
EXTT9=
EXTT10=
EXTT11=
EXTT12=
EXTT13=
EXTT14=
PLAYORDER=
